<svg width="33" height="34" viewBox="0 0 33 34" fill="none" xmlns="http://www.w3.org/2000/svg">
<path d="M29.6875 20.25H9.6875L7.6875 8.25H31.6875L29.6875 20.25Z" fill="#CCD6DD"/>
<path d="M31.6715 25.25H9.6715C8.5775 25.25 7.6875 24.359 7.6875 23.266C7.6875 22.173 8.5935 21.25 9.6875 21.25L9.6945 21.249L9.7025 21.25H29.6875C30.1765 21.25 30.5935 20.896 30.6735 20.414L32.6735 8.414C32.7225 8.124 32.6405 7.828 32.4495 7.603C32.2605 7.379 31.9815 7.25 31.6875 7.25H8.5045L7.4645 1.084C7.3855 0.611 6.9805 0.292 6.5225 0.27C6.5065 0.267 6.4955 0.25 6.4795 0.25H1.6875C1.1355 0.25 0.6875 0.698 0.6875 1.25C0.6875 1.802 1.1355 2.25 1.6875 2.25H5.6335L8.5365 19.466C6.8945 19.959 5.6875 21.466 5.6875 23.266C5.6875 25.463 7.4755 27.25 9.6715 27.25H31.6715C32.2245 27.25 32.6715 26.803 32.6715 26.25C32.6715 25.697 32.2245 25.25 31.6715 25.25ZM29.5075 15.25H26.2005L26.4735 13.25H29.8395L29.5075 15.25ZM24.1815 15.25H20.6875V13.25H24.4545L24.1815 15.25ZM18.6875 15.25H15.1935L14.9205 13.25H18.6875V15.25ZM13.1755 15.25H9.8685L9.5355 13.25H12.9025L13.1755 15.25ZM10.5345 19.25L10.2015 17.25H13.4485L13.7215 19.25H10.5345ZM15.7405 19.25L15.4675 17.25H18.6875V19.25H15.7405ZM20.6875 19.25V17.25H23.9075L23.6345 19.25H20.6875ZM25.6545 19.25L25.9275 17.25H29.1745L28.8415 19.25H25.6545ZM30.5065 9.25L30.1735 11.25H26.7475L27.0205 9.25H30.5065ZM25.0015 9.25L24.7285 11.25H20.6875V9.25H25.0015ZM18.6875 9.25V11.25H14.6465L14.3735 9.25H18.6875ZM12.3545 9.25L12.6275 11.25H9.2005L8.8675 9.25H12.3545Z" fill="#66757F"/>
<path d="M12.6875 32.25C14.3444 32.25 15.6875 30.9069 15.6875 29.25C15.6875 27.5931 14.3444 26.25 12.6875 26.25C11.0306 26.25 9.6875 27.5931 9.6875 29.25C9.6875 30.9069 11.0306 32.25 12.6875 32.25Z" fill="#E1E8ED"/>
<path d="M12.6875 33.25C10.4815 33.25 8.6875 31.456 8.6875 29.25C8.6875 27.044 10.4815 25.25 12.6875 25.25C14.8935 25.25 16.6875 27.044 16.6875 29.25C16.6875 31.456 14.8935 33.25 12.6875 33.25ZM12.6875 27.25C11.5845 27.25 10.6875 28.147 10.6875 29.25C10.6875 30.353 11.5845 31.25 12.6875 31.25C13.7905 31.25 14.6875 30.353 14.6875 29.25C14.6875 28.147 13.7905 27.25 12.6875 27.25Z" fill="#292F33"/>
<path d="M26.6875 32.25C28.3444 32.25 29.6875 30.9069 29.6875 29.25C29.6875 27.5931 28.3444 26.25 26.6875 26.25C25.0306 26.25 23.6875 27.5931 23.6875 29.25C23.6875 30.9069 25.0306 32.25 26.6875 32.25Z" fill="#E1E8ED"/>
<path d="M26.6875 33.25C24.4815 33.25 22.6875 31.456 22.6875 29.25C22.6875 27.044 24.4815 25.25 26.6875 25.25C28.8935 25.25 30.6875 27.044 30.6875 29.25C30.6875 31.456 28.8935 33.25 26.6875 33.25ZM26.6875 27.25C25.5845 27.25 24.6875 28.147 24.6875 29.25C24.6875 30.353 25.5845 31.25 26.6875 31.25C27.7905 31.25 28.6875 30.353 28.6875 29.25C28.6875 28.147 27.7905 27.25 26.6875 27.25Z" fill="#292F33"/>
</svg>
