<svg width="37" height="35" viewBox="0 0 37 35" fill="none" xmlns="http://www.w3.org/2000/svg">
<path d="M33.6875 30.6958C33.6875 32.8958 31.8875 34.6958 29.6875 34.6958H7.6875C5.4875 34.6958 3.6875 32.8958 3.6875 30.6958V13.6958C3.6875 11.4958 5.4875 9.6958 7.6875 9.6958H29.6875C31.8875 9.6958 33.6875 11.4958 33.6875 13.6958V30.6958Z" fill="#FDD888"/>
<path d="M36.6875 10.6958C36.6875 12.8958 34.8875 14.6958 32.6875 14.6958H4.6875C2.4875 14.6958 0.6875 12.8958 0.6875 10.6958C0.6875 8.4958 2.4875 6.6958 4.6875 6.6958H32.6875C34.8875 6.6958 36.6875 8.4958 36.6875 10.6958Z" fill="#FDD888"/>
<path d="M3.6875 14.6958H33.6875V16.6958H3.6875V14.6958Z" fill="#FCAB40"/>
<path d="M19.6875 2.6958H17.6875C16.0305 2.6958 14.6875 4.0388 14.6875 5.6958V34.6958H22.6875V5.6958C22.6875 4.0398 21.3445 2.6958 19.6875 2.6958Z" fill="#DA2F47"/>
<path d="M16.6876 6.69587C17.7876 6.69587 17.9506 6.17987 17.0486 5.54887L10.3266 0.842871C9.42461 0.211871 8.24161 0.476871 7.69561 1.43187L5.67961 4.95987C5.13361 5.91487 5.58761 6.69587 6.68761 6.69587H16.6876ZM20.6876 6.69587C19.5876 6.69587 19.4246 6.17987 20.3266 5.54887L27.0496 0.842871C27.9506 0.211871 29.1346 0.476871 29.6806 1.43187L31.6966 4.95887C32.2416 5.91487 31.7876 6.69587 30.6876 6.69587H20.6876Z" fill="#DA2F47"/>
</svg>
