<svg width="303" height="484" viewBox="0 0 303 484" fill="none" xmlns="http://www.w3.org/2000/svg">
<path d="M302.25 4.12874C302.25 4.12874 250.447 41.0986 212.25 42.6287C170.072 44.3183 152.745 11.8743 111.25 4.12876C68.6378 -3.82534 0.249997 4.12876 0.249997 4.12876" stroke="#0B1E48" stroke-opacity="0.1"/>
<path d="M302.25 12.5028C302.25 12.5028 250.447 49.4727 212.25 51.0028C170.072 52.6923 152.745 20.2483 111.25 12.5028C68.6378 4.54868 0.249997 12.5028 0.249997 12.5028" stroke="#0B1E48" stroke-opacity="0.1"/>
<path d="M302.25 21.5521C302.25 21.5521 250.447 58.522 212.25 60.0521C170.072 61.7416 152.745 29.2976 111.25 21.5521C68.6378 13.598 0.249997 21.5521 0.249997 21.5521" stroke="#0B1E48" stroke-opacity="0.1"/>
<path d="M302.25 33.5521C302.25 33.5521 250.447 70.522 212.25 72.0521C170.072 73.7416 152.745 41.2976 111.25 33.5521C68.6378 25.598 0.249997 33.5521 0.249997 33.5521" stroke="#0B1E48" stroke-opacity="0.1"/>
<path d="M302.25 42.6014C302.25 42.6014 250.447 79.5713 212.25 81.1014C170.072 82.7909 152.745 50.3469 111.25 42.6014C68.6378 34.6473 0.249997 42.6014 0.249997 42.6014" stroke="#0B1E48" stroke-opacity="0.1"/>
<path d="M302.25 51.5028C302.25 51.5028 250.447 88.4727 212.25 90.0028C170.072 91.6923 152.745 59.2483 111.25 51.5028C68.6378 43.5487 0.249997 51.5028 0.249997 51.5028" stroke="#0B1E48" stroke-opacity="0.1"/>
<path d="M302.25 60.6014C302.25 60.6014 250.447 97.5713 212.25 99.1014C170.072 100.791 152.745 68.3469 111.25 60.6014C68.6378 52.6473 0.249997 60.6014 0.249997 60.6014" stroke="#0B1E48" stroke-opacity="0.1"/>
<path d="M302.25 72.5521C302.25 72.5521 250.447 109.522 212.25 111.052C170.072 112.742 152.745 80.2976 111.25 72.5521C68.6378 64.598 0.249997 72.5521 0.249997 72.5521" stroke="#0B1E48" stroke-opacity="0.1"/>
<path d="M302.25 84.7C302.25 84.7 250.447 121.67 212.25 123.2C170.072 124.89 152.745 92.4455 111.25 84.7C68.6378 76.7459 0.249997 84.7001 0.249997 84.7001" stroke="#0B1E48" stroke-opacity="0.1"/>
<path d="M302.25 93.6014C302.25 93.6014 250.447 130.571 212.25 132.101C170.072 133.791 152.745 101.347 111.25 93.6014C68.6378 85.6473 0.249997 93.6014 0.249997 93.6014" stroke="#0B1E48" stroke-opacity="0.1"/>
<path d="M302.25 105.749C302.25 105.749 250.447 142.719 212.25 144.249C170.072 145.939 152.745 113.495 111.25 105.749C68.6378 97.7953 0.249997 105.749 0.249997 105.749" stroke="#0B1E48" stroke-opacity="0.1"/>
<path d="M302.25 120.129C302.25 120.129 250.447 157.099 212.25 158.629C170.072 160.318 152.745 127.874 111.25 120.129C68.6378 112.175 0.249997 120.129 0.249997 120.129" stroke="#0B1E48" stroke-opacity="0.1"/>
<path d="M302.25 128.503C302.25 128.503 250.447 165.473 212.25 167.003C170.072 168.692 152.745 136.248 111.25 128.503C68.6378 120.549 0.249997 128.503 0.249997 128.503" stroke="#0B1E48" stroke-opacity="0.1"/>
<path d="M302.25 137.552C302.25 137.552 250.447 174.522 212.25 176.052C170.072 177.742 152.745 145.298 111.25 137.552C68.6378 129.598 0.249997 137.552 0.249997 137.552" stroke="#0B1E48" stroke-opacity="0.1"/>
<path d="M302.25 149.552C302.25 149.552 250.447 186.522 212.25 188.052C170.072 189.742 152.745 157.298 111.25 149.552C68.6378 141.598 0.249997 149.552 0.249997 149.552" stroke="#0B1E48" stroke-opacity="0.1"/>
<path d="M302.25 158.601C302.25 158.601 250.447 195.571 212.25 197.101C170.072 198.791 152.745 166.347 111.25 158.601C68.6378 150.647 0.249997 158.601 0.249997 158.601" stroke="#0B1E48" stroke-opacity="0.1"/>
<path d="M302.25 167.503C302.25 167.503 250.447 204.473 212.25 206.003C170.072 207.692 152.745 175.248 111.25 167.503C68.6378 159.549 0.249997 167.503 0.249997 167.503" stroke="#0B1E48" stroke-opacity="0.1"/>
<path d="M302.25 176.601C302.25 176.601 250.447 213.571 212.25 215.101C170.072 216.791 152.745 184.347 111.25 176.601C68.6378 168.647 0.249997 176.601 0.249997 176.601" stroke="#0B1E48" stroke-opacity="0.1"/>
<path d="M302.25 188.552C302.25 188.552 250.447 225.522 212.25 227.052C170.072 228.742 152.745 196.298 111.25 188.552C68.6378 180.598 0.249997 188.552 0.249997 188.552" stroke="#0B1E48" stroke-opacity="0.1"/>
<path d="M302.25 200.7C302.25 200.7 250.447 237.67 212.25 239.2C170.072 240.89 152.745 208.446 111.25 200.7C68.6378 192.746 0.249997 200.7 0.249997 200.7" stroke="#0B1E48" stroke-opacity="0.1"/>
<path d="M302.25 209.601C302.25 209.601 250.447 246.571 212.25 248.101C170.072 249.791 152.745 217.347 111.25 209.601C68.6378 201.647 0.249997 209.601 0.249997 209.601" stroke="#0B1E48" stroke-opacity="0.1"/>
<path d="M302.25 221.749C302.25 221.749 250.447 258.719 212.25 260.249C170.072 261.939 152.745 229.495 111.25 221.749C68.6378 213.795 0.249997 221.749 0.249997 221.749" stroke="#0B1E48" stroke-opacity="0.1"/>
<path d="M302.25 230.651C302.25 230.651 250.447 267.621 212.25 269.151C170.072 270.84 152.745 238.396 111.25 230.651C68.6378 222.697 0.249997 230.651 0.249997 230.651" stroke="#0B1E48" stroke-opacity="0.1"/>
<path d="M302.25 239.025C302.25 239.025 250.447 275.995 212.25 277.525C170.072 279.214 152.745 246.77 111.25 239.025C68.6378 231.071 0.249997 239.025 0.249997 239.025" stroke="#0B1E48" stroke-opacity="0.1"/>
<path d="M302.25 248.074C302.25 248.074 250.447 285.044 212.25 286.574C170.072 288.264 152.745 255.82 111.25 248.074C68.6378 240.12 0.249997 248.074 0.249997 248.074" stroke="#0B1E48" stroke-opacity="0.1"/>
<path d="M302.25 260.074C302.25 260.074 250.447 297.044 212.25 298.574C170.072 300.264 152.745 267.82 111.25 260.074C68.6378 252.12 0.249997 260.074 0.249997 260.074" stroke="#0B1E48" stroke-opacity="0.1"/>
<path d="M302.25 269.123C302.25 269.123 250.447 306.093 212.25 307.623C170.072 309.313 152.745 276.869 111.25 269.123C68.6378 261.169 0.249997 269.123 0.249997 269.123" stroke="#0B1E48" stroke-opacity="0.1"/>
<path d="M302.25 278.025C302.25 278.025 250.447 314.995 212.25 316.525C170.072 318.214 152.745 285.77 111.25 278.025C68.6378 270.071 0.249997 278.025 0.249997 278.025" stroke="#0B1E48" stroke-opacity="0.1"/>
<path d="M302.25 287.123C302.25 287.123 250.447 324.093 212.25 325.623C170.072 327.313 152.745 294.869 111.25 287.123C68.6378 279.169 0.249997 287.123 0.249997 287.123" stroke="#0B1E48" stroke-opacity="0.1"/>
<path d="M302.25 299.074C302.25 299.074 250.447 336.044 212.25 337.574C170.072 339.264 152.745 306.82 111.25 299.074C68.6378 291.12 0.249997 299.074 0.249997 299.074" stroke="#0B1E48" stroke-opacity="0.1"/>
<path d="M302.25 311.222C302.25 311.222 250.447 348.192 212.25 349.722C170.072 351.412 152.745 318.968 111.25 311.222C68.6378 303.268 0.249997 311.222 0.249997 311.222" stroke="#0B1E48" stroke-opacity="0.1"/>
<path d="M302.25 320.123C302.25 320.123 250.447 357.093 212.25 358.623C170.072 360.313 152.745 327.869 111.25 320.123C68.6378 312.169 0.249997 320.123 0.249997 320.123" stroke="#0B1E48" stroke-opacity="0.1"/>
<path d="M302.25 332.271C302.25 332.271 250.447 369.241 212.25 370.771C170.072 372.461 152.745 340.017 111.25 332.271C68.6378 324.317 0.249997 332.271 0.249997 332.271" stroke="#0B1E48" stroke-opacity="0.1"/>
<path d="M302.25 343.222C302.25 343.222 250.447 380.192 212.25 381.722C170.072 383.412 152.745 350.968 111.25 343.222C68.6378 335.268 0.249997 343.222 0.249997 343.222" stroke="#0B1E48" stroke-opacity="0.1"/>
<path d="M302.25 351.596C302.25 351.596 250.447 388.566 212.25 390.096C170.072 391.786 152.745 359.342 111.25 351.596C68.6378 343.642 0.249997 351.596 0.249997 351.596" stroke="#0B1E48" stroke-opacity="0.1"/>
<path d="M302.25 360.645C302.25 360.645 250.447 397.615 212.25 399.145C170.072 400.835 152.745 368.391 111.25 360.645C68.6378 352.691 0.249997 360.645 0.249997 360.645" stroke="#0B1E48" stroke-opacity="0.1"/>
<path d="M302.25 372.645C302.25 372.645 250.447 409.615 212.25 411.145C170.072 412.835 152.745 380.391 111.25 372.645C68.6378 364.691 0.249997 372.645 0.249997 372.645" stroke="#0B1E48" stroke-opacity="0.1"/>
<path d="M302.25 381.695C302.25 381.695 250.447 418.665 212.25 420.195C170.072 421.884 152.745 389.44 111.25 381.695C68.6378 373.741 0.249997 381.695 0.249997 381.695" stroke="#0B1E48" stroke-opacity="0.1"/>
<path d="M302.25 390.596C302.25 390.596 250.447 427.566 212.25 429.096C170.072 430.786 152.745 398.342 111.25 390.596C68.6378 382.642 0.249997 390.596 0.249997 390.596" stroke="#0B1E48" stroke-opacity="0.1"/>
<path d="M302.25 399.695C302.25 399.695 250.447 436.665 212.25 438.195C170.072 439.884 152.745 407.44 111.25 399.695C68.6378 391.741 0.249997 399.695 0.249997 399.695" stroke="#0B1E48" stroke-opacity="0.1"/>
<path d="M302.25 411.645C302.25 411.645 250.447 448.615 212.25 450.145C170.072 451.835 152.745 419.391 111.25 411.645C68.6378 403.691 0.249997 411.645 0.249997 411.645" stroke="#0B1E48" stroke-opacity="0.1"/>
<path d="M302.25 423.793C302.25 423.793 250.447 460.763 212.25 462.293C170.072 463.983 152.745 431.539 111.25 423.793C68.6378 415.839 0.249997 423.793 0.249997 423.793" stroke="#0B1E48" stroke-opacity="0.1"/>
<path d="M302.25 432.695C302.25 432.695 250.447 469.665 212.25 471.195C170.072 472.884 152.745 440.44 111.25 432.695C68.6378 424.741 0.249997 432.695 0.249997 432.695" stroke="#0B1E48" stroke-opacity="0.1"/>
<path d="M302.25 444.843C302.25 444.843 250.447 481.813 212.25 483.343C170.072 485.032 152.745 452.588 111.25 444.843C68.6378 436.889 0.249997 444.843 0.249997 444.843" stroke="#0B1E48" stroke-opacity="0.1"/>
</svg>
