<svg width="7" height="12" viewBox="0 0 7 12" fill="none" xmlns="http://www.w3.org/2000/svg">
<path d="M6.35434 5.65672L1.8046 0.761668C1.69937 0.64836 1.55898 0.585937 1.40936 0.585937C1.25974 0.585937 1.11948 0.64836 1.01447 0.761668L0.680131 1.12207C0.462573 1.35691 0.462953 1.7386 0.680976 1.97309L4.50151 6.08365L0.684916 10.1988C0.579911 10.3121 0.522023 10.4631 0.522183 10.6242C0.522343 10.7854 0.580532 10.9365 0.685762 11.0499L1.02082 11.4102C1.12613 11.5235 1.26643 11.5859 1.41606 11.5859C1.56568 11.5859 1.70594 11.5235 1.81094 11.4102L6.35519 6.51068C6.46044 6.39702 6.51816 6.24525 6.51767 6.08392C6.51784 5.92196 6.45982 5.77029 6.35434 5.65672Z" fill="#061435"/>
</svg>
