<svg width="22" height="22" viewBox="0 0 22 22" fill="none" xmlns="http://www.w3.org/2000/svg">
<path fill-rule="evenodd" clip-rule="evenodd" d="M15.598 7.14997V8.49164C17.1051 8.96206 18.2031 10.3263 18.2031 11.9558V16.2756C18.2031 18.2929 16.5307 19.9285 14.4688 19.9285H7.06332C5.00056 19.9285 3.32812 18.2929 3.32812 16.2756V11.9558C3.32812 10.3263 4.42708 8.96206 5.93325 8.49164V7.14997C5.94214 4.54141 8.10271 2.42847 10.7523 2.42847C13.4374 2.42847 15.598 4.54141 15.598 7.14997ZM10.7701 3.95013C12.575 3.95013 14.042 5.38484 14.042 7.14997V8.30296H7.48921V7.13258C7.4981 5.37615 8.96515 3.95013 10.7701 3.95013ZM11.5436 15.0765C11.5436 15.5026 11.1968 15.8417 10.7612 15.8417C10.3344 15.8417 9.98764 15.5026 9.98764 15.0765V13.1462C9.98764 12.7288 10.3344 12.3897 10.7612 12.3897C11.1968 12.3897 11.5436 12.7288 11.5436 13.1462V15.0765Z" fill="#FFCC00"/>
</svg>
