<svg width="146" height="41" viewBox="0 0 146 41" fill="none" xmlns="http://www.w3.org/2000/svg">
<rect x="0.532227" y="0.065918" width="145" height="40" fill="#0B1E48"/>
<path d="M16.6543 21.8008C16.6543 21.582 16.6204 21.3867 16.5527 21.2148C16.4902 21.0378 16.373 20.8789 16.2012 20.7383C16.0345 20.5924 15.7975 20.4518 15.4902 20.3164C15.1882 20.1758 14.7975 20.0299 14.3184 19.8789C13.7871 19.7122 13.2923 19.5247 12.834 19.3164C12.3757 19.1081 11.972 18.8659 11.623 18.5898C11.2793 18.3138 11.0111 17.9961 10.8184 17.6367C10.6257 17.2721 10.5293 16.8503 10.5293 16.3711C10.5293 15.9023 10.6283 15.4753 10.8262 15.0898C11.0293 14.7044 11.3158 14.3737 11.6855 14.0977C12.0553 13.8164 12.4902 13.6003 12.9902 13.4492C13.4954 13.2982 14.0527 13.2227 14.6621 13.2227C15.5059 13.2227 16.235 13.3763 16.8496 13.6836C17.4694 13.9909 17.9486 14.4076 18.2871 14.9336C18.6257 15.4596 18.7949 16.0508 18.7949 16.707H16.6543C16.6543 16.3529 16.5788 16.0404 16.4277 15.7695C16.2819 15.4987 16.0579 15.2852 15.7559 15.1289C15.459 14.9727 15.084 14.8945 14.6309 14.8945C14.1934 14.8945 13.8288 14.9596 13.5371 15.0898C13.2507 15.2201 13.0345 15.3971 12.8887 15.6211C12.748 15.8451 12.6777 16.0951 12.6777 16.3711C12.6777 16.5794 12.7272 16.7669 12.8262 16.9336C12.9251 17.0951 13.0736 17.2487 13.2715 17.3945C13.4694 17.5352 13.7142 17.668 14.0059 17.793C14.3027 17.9128 14.6465 18.0326 15.0371 18.1523C15.6621 18.3398 16.209 18.5482 16.6777 18.7773C17.1517 19.0065 17.5449 19.2669 17.8574 19.5586C18.1751 19.8503 18.4121 20.1784 18.5684 20.543C18.7298 20.9076 18.8105 21.3216 18.8105 21.7852C18.8105 22.2747 18.7142 22.7122 18.5215 23.0977C18.3288 23.4831 18.0527 23.8112 17.6934 24.082C17.334 24.3529 16.9017 24.5586 16.3965 24.6992C15.8965 24.8398 15.3366 24.9102 14.7168 24.9102C14.1647 24.9102 13.6178 24.8372 13.0762 24.6914C12.5397 24.5404 12.0527 24.3164 11.6152 24.0195C11.1777 23.7174 10.8288 23.3372 10.5684 22.8789C10.3079 22.4154 10.1777 21.8737 10.1777 21.2539H12.334C12.334 21.6133 12.3913 21.9206 12.5059 22.1758C12.6257 22.4258 12.7923 22.6315 13.0059 22.793C13.2246 22.9492 13.4798 23.0638 13.7715 23.1367C14.0632 23.2096 14.3783 23.2461 14.7168 23.2461C15.1543 23.2461 15.5137 23.1862 15.7949 23.0664C16.0814 22.9414 16.2949 22.7695 16.4355 22.5508C16.5814 22.332 16.6543 22.082 16.6543 21.8008ZM25.3496 13.3789V24.7539H23.209V13.3789H25.3496ZM28.8809 13.3789V15.0742H19.7168V13.3789H28.8809ZM39.3027 18.7773V19.3633C39.3027 20.2227 39.1882 20.9961 38.959 21.6836C38.7298 22.3659 38.4043 22.9466 37.9824 23.4258C37.5605 23.9049 37.0579 24.2721 36.4746 24.5273C35.8913 24.7826 35.2428 24.9102 34.5293 24.9102C33.8262 24.9102 33.1803 24.7826 32.5918 24.5273C32.0085 24.2721 31.5033 23.9049 31.0762 23.4258C30.6491 22.9466 30.3184 22.3659 30.084 21.6836C29.8496 20.9961 29.7324 20.2227 29.7324 19.3633V18.7773C29.7324 17.9128 29.8496 17.1393 30.084 16.457C30.3184 15.7747 30.6465 15.194 31.0684 14.7148C31.4902 14.2305 31.9928 13.8607 32.5762 13.6055C33.1647 13.3503 33.8105 13.2227 34.5137 13.2227C35.2272 13.2227 35.8757 13.3503 36.459 13.6055C37.0423 13.8607 37.5449 14.2305 37.9668 14.7148C38.3939 15.194 38.722 15.7747 38.9512 16.457C39.1855 17.1393 39.3027 17.9128 39.3027 18.7773ZM37.1309 19.3633V18.7617C37.1309 18.1419 37.0736 17.5977 36.959 17.1289C36.8444 16.6549 36.6751 16.2565 36.4512 15.9336C36.2272 15.6107 35.9512 15.3685 35.623 15.207C35.2949 15.0404 34.9251 14.957 34.5137 14.957C34.097 14.957 33.7272 15.0404 33.4043 15.207C33.0866 15.3685 32.8158 15.6107 32.5918 15.9336C32.3678 16.2565 32.196 16.6549 32.0762 17.1289C31.9616 17.5977 31.9043 18.1419 31.9043 18.7617V19.3633C31.9043 19.9779 31.9616 20.5221 32.0762 20.9961C32.196 21.4701 32.3678 21.8711 32.5918 22.1992C32.821 22.5221 33.097 22.7669 33.4199 22.9336C33.7428 23.1003 34.1126 23.1836 34.5293 23.1836C34.946 23.1836 35.3158 23.1003 35.6387 22.9336C35.9616 22.7669 36.2324 22.5221 36.4512 22.1992C36.6751 21.8711 36.8444 21.4701 36.959 20.9961C37.0736 20.5221 37.1309 19.9779 37.1309 19.3633ZM47.7793 21.0117H49.9277C49.8704 21.7721 49.6595 22.4466 49.2949 23.0352C48.9303 23.6185 48.4225 24.0768 47.7715 24.4102C47.1204 24.7435 46.3314 24.9102 45.4043 24.9102C44.6908 24.9102 44.0475 24.7852 43.4746 24.5352C42.9069 24.2799 42.4199 23.918 42.0137 23.4492C41.6126 22.9753 41.3053 22.4076 41.0918 21.7461C40.8783 21.0794 40.7715 20.332 40.7715 19.5039V18.6367C40.7715 17.8086 40.8809 17.0612 41.0996 16.3945C41.3184 15.7279 41.6309 15.1602 42.0371 14.6914C42.4486 14.2174 42.9408 13.8529 43.5137 13.5977C44.0918 13.3424 44.7376 13.2148 45.4512 13.2148C46.3783 13.2148 47.1621 13.3867 47.8027 13.7305C48.4434 14.069 48.9408 14.5352 49.2949 15.1289C49.6491 15.7227 49.8626 16.4049 49.9355 17.1758H47.7871C47.7454 16.6966 47.6413 16.2904 47.4746 15.957C47.3132 15.6237 47.0684 15.3711 46.7402 15.1992C46.4173 15.0221 45.9876 14.9336 45.4512 14.9336C45.0345 14.9336 44.6673 15.0117 44.3496 15.168C44.0371 15.3242 43.7767 15.5586 43.5684 15.8711C43.36 16.1784 43.2038 16.5638 43.0996 17.0273C42.9954 17.4857 42.9434 18.0169 42.9434 18.6211V19.5039C42.9434 20.082 42.9902 20.6003 43.084 21.0586C43.1777 21.5169 43.3236 21.9049 43.5215 22.2227C43.7194 22.5404 43.9746 22.7826 44.2871 22.9492C44.5996 23.1159 44.972 23.1992 45.4043 23.1992C45.9303 23.1992 46.3574 23.1159 46.6855 22.9492C47.0189 22.7826 47.2715 22.5378 47.4434 22.2148C47.6204 21.8919 47.7324 21.4909 47.7793 21.0117ZM53.7402 13.3789V24.7539H51.5918V13.3789H53.7402ZM60.5684 13.3789L56.0059 18.9258L53.3965 21.7148L53.0137 19.6289L54.8262 17.2773L57.9355 13.3789H60.5684ZM58.1777 24.7539L54.6387 19.4258L56.1777 18.0352L60.7324 24.7539H58.1777Z" fill="white"/>
<path d="M69.9746 19.2852H66.7715L66.7559 18.4727H69.5137C70.0762 18.4727 70.5553 18.3919 70.9512 18.2305C71.347 18.069 71.6465 17.8294 71.8496 17.5117C72.0579 17.1888 72.1621 16.793 72.1621 16.3242C72.1621 15.8451 72.0605 15.4492 71.8574 15.1367C71.6543 14.819 71.3496 14.5846 70.9434 14.4336C70.5371 14.2826 70.0267 14.207 69.4121 14.207H67.0215V24.7539H66.0605V13.3789H69.4121C69.9902 13.3789 70.5085 13.4362 70.9668 13.5508C71.4251 13.6654 71.8158 13.8451 72.1387 14.0898C72.4616 14.3346 72.7064 14.6445 72.873 15.0195C73.0449 15.3893 73.1309 15.832 73.1309 16.3477C73.1309 16.8164 73.0267 17.2409 72.8184 17.6211C72.61 17.9961 72.3158 18.3034 71.9355 18.543C71.5605 18.7773 71.11 18.9232 70.584 18.9805L69.9746 19.2852ZM69.9043 24.7539H66.4668L66.959 23.9336H69.9043C70.4668 23.9336 70.946 23.8398 71.3418 23.6523C71.7428 23.4596 72.0501 23.1862 72.2637 22.832C72.4772 22.4779 72.584 22.056 72.584 21.5664C72.584 21.1341 72.4902 20.7461 72.3027 20.4023C72.1152 20.0586 71.8288 19.7878 71.4434 19.5898C71.0579 19.3867 70.5684 19.2852 69.9746 19.2852H67.9824L67.998 18.4727H70.8184L70.9902 18.7617C71.5007 18.8138 71.946 18.9727 72.3262 19.2383C72.7116 19.4987 73.0085 19.8294 73.2168 20.2305C73.4303 20.6315 73.5371 21.0716 73.5371 21.5508C73.5371 22.2383 73.3835 22.8216 73.0762 23.3008C72.7741 23.7747 72.3496 24.1367 71.8027 24.3867C71.2611 24.6315 70.6283 24.7539 69.9043 24.7539ZM84.2715 18.457V19.6758C84.2715 20.4727 84.1673 21.194 83.959 21.8398C83.7559 22.4805 83.459 23.0299 83.0684 23.4883C82.6829 23.9466 82.2194 24.2982 81.6777 24.543C81.1361 24.7878 80.5267 24.9102 79.8496 24.9102C79.1882 24.9102 78.584 24.7878 78.0371 24.543C77.4954 24.2982 77.0293 23.9466 76.6387 23.4883C76.248 23.0299 75.946 22.4805 75.7324 21.8398C75.5189 21.194 75.4121 20.4727 75.4121 19.6758V18.457C75.4121 17.6602 75.5163 16.9414 75.7246 16.3008C75.9382 15.6549 76.2402 15.1029 76.6309 14.6445C77.0215 14.1862 77.4876 13.8346 78.0293 13.5898C78.571 13.3451 79.1725 13.2227 79.834 13.2227C80.5111 13.2227 81.1204 13.3451 81.6621 13.5898C82.2038 13.8346 82.6699 14.1862 83.0605 14.6445C83.4512 15.1029 83.7507 15.6549 83.959 16.3008C84.1673 16.9414 84.2715 17.6602 84.2715 18.457ZM83.3184 19.6758V18.4414C83.3184 17.7695 83.2402 17.1654 83.084 16.6289C82.9329 16.0924 82.7064 15.6341 82.4043 15.2539C82.1074 14.8737 81.7428 14.582 81.3105 14.3789C80.8783 14.1758 80.3861 14.0742 79.834 14.0742C79.2975 14.0742 78.8158 14.1758 78.3887 14.3789C77.9616 14.582 77.597 14.8737 77.2949 15.2539C76.998 15.6341 76.7689 16.0924 76.6074 16.6289C76.4512 17.1654 76.373 17.7695 76.373 18.4414V19.6758C76.373 20.3529 76.4512 20.9622 76.6074 21.5039C76.7689 22.0404 77.0007 22.5013 77.3027 22.8867C77.6048 23.2669 77.9694 23.5586 78.3965 23.7617C78.8288 23.9648 79.3132 24.0664 79.8496 24.0664C80.4069 24.0664 80.8991 23.9648 81.3262 23.7617C81.7533 23.5586 82.1152 23.2669 82.4121 22.8867C82.709 22.5013 82.9329 22.0404 83.084 21.5039C83.2402 20.9622 83.3184 20.3529 83.3184 19.6758ZM95.0996 18.457V19.6758C95.0996 20.4727 94.9954 21.194 94.7871 21.8398C94.584 22.4805 94.2871 23.0299 93.8965 23.4883C93.5111 23.9466 93.0475 24.2982 92.5059 24.543C91.9642 24.7878 91.3548 24.9102 90.6777 24.9102C90.0163 24.9102 89.4121 24.7878 88.8652 24.543C88.3236 24.2982 87.8574 23.9466 87.4668 23.4883C87.0762 23.0299 86.7741 22.4805 86.5605 21.8398C86.347 21.194 86.2402 20.4727 86.2402 19.6758V18.457C86.2402 17.6602 86.3444 16.9414 86.5527 16.3008C86.7663 15.6549 87.0684 15.1029 87.459 14.6445C87.8496 14.1862 88.3158 13.8346 88.8574 13.5898C89.3991 13.3451 90.0007 13.2227 90.6621 13.2227C91.3392 13.2227 91.9486 13.3451 92.4902 13.5898C93.0319 13.8346 93.498 14.1862 93.8887 14.6445C94.2793 15.1029 94.5788 15.6549 94.7871 16.3008C94.9954 16.9414 95.0996 17.6602 95.0996 18.457ZM94.1465 19.6758V18.4414C94.1465 17.7695 94.0684 17.1654 93.9121 16.6289C93.7611 16.0924 93.5345 15.6341 93.2324 15.2539C92.9355 14.8737 92.571 14.582 92.1387 14.3789C91.7064 14.1758 91.2142 14.0742 90.6621 14.0742C90.1257 14.0742 89.6439 14.1758 89.2168 14.3789C88.7897 14.582 88.4251 14.8737 88.123 15.2539C87.8262 15.6341 87.597 16.0924 87.4355 16.6289C87.2793 17.1654 87.2012 17.7695 87.2012 18.4414V19.6758C87.2012 20.3529 87.2793 20.9622 87.4355 21.5039C87.597 22.0404 87.8288 22.5013 88.1309 22.8867C88.4329 23.2669 88.7975 23.5586 89.2246 23.7617C89.6569 23.9648 90.1413 24.0664 90.6777 24.0664C91.235 24.0664 91.7272 23.9648 92.1543 23.7617C92.5814 23.5586 92.9434 23.2669 93.2402 22.8867C93.5371 22.5013 93.7611 22.0404 93.9121 21.5039C94.0684 20.9622 94.1465 20.3529 94.1465 19.6758ZM103.967 21.957C103.967 21.6445 103.915 21.3659 103.811 21.1211C103.706 20.8763 103.535 20.6576 103.295 20.4648C103.061 20.2669 102.743 20.0846 102.342 19.918C101.946 19.7461 101.451 19.5768 100.857 19.4102C100.29 19.2487 99.7767 19.0716 99.3184 18.8789C98.86 18.6862 98.4668 18.4648 98.1387 18.2148C97.8158 17.9648 97.5684 17.6732 97.3965 17.3398C97.2246 17.0013 97.1387 16.6081 97.1387 16.1602C97.1387 15.7227 97.2324 15.3242 97.4199 14.9648C97.6074 14.6055 97.8704 14.2956 98.209 14.0352C98.5527 13.7747 98.9564 13.5742 99.4199 13.4336C99.8887 13.293 100.402 13.2227 100.959 13.2227C101.756 13.2227 102.443 13.3737 103.021 13.6758C103.605 13.9779 104.055 14.3867 104.373 14.9023C104.696 15.4128 104.857 15.9857 104.857 16.6211H103.896C103.896 16.1263 103.779 15.6862 103.545 15.3008C103.316 14.9102 102.982 14.6055 102.545 14.3867C102.113 14.1628 101.584 14.0508 100.959 14.0508C100.334 14.0508 99.8079 14.1471 99.3809 14.3398C98.959 14.5273 98.6387 14.7799 98.4199 15.0977C98.2064 15.4102 98.0996 15.7591 98.0996 16.1445C98.0996 16.4154 98.1517 16.6654 98.2559 16.8945C98.36 17.1185 98.5293 17.3294 98.7637 17.5273C99.0033 17.7201 99.3184 17.9023 99.709 18.0742C100.1 18.2409 100.581 18.3997 101.154 18.5508C101.758 18.7174 102.295 18.9023 102.764 19.1055C103.232 19.3086 103.628 19.543 103.951 19.8086C104.274 20.069 104.519 20.3737 104.686 20.7227C104.852 21.0716 104.936 21.4779 104.936 21.9414C104.936 22.4049 104.837 22.8216 104.639 23.1914C104.446 23.556 104.173 23.8659 103.818 24.1211C103.469 24.3763 103.055 24.5716 102.576 24.707C102.102 24.8424 101.584 24.9102 101.021 24.9102C100.516 24.9102 100.014 24.8451 99.5137 24.7148C99.0137 24.5846 98.5553 24.3841 98.1387 24.1133C97.7272 23.8372 97.3965 23.4831 97.1465 23.0508C96.9017 22.6185 96.7793 22.1029 96.7793 21.5039H97.7324C97.7324 21.9831 97.8288 22.3867 98.0215 22.7148C98.2142 23.043 98.4694 23.3086 98.7871 23.5117C99.11 23.7148 99.4642 23.8633 99.8496 23.957C100.24 24.0456 100.631 24.0898 101.021 24.0898C101.62 24.0898 102.139 24.0013 102.576 23.8242C103.019 23.6471 103.36 23.3997 103.6 23.082C103.844 22.7591 103.967 22.3841 103.967 21.957ZM110.826 13.3789V24.7539H109.873V13.3789H110.826ZM114.725 13.3789V14.207H105.982V13.3789H114.725ZM123.646 23.9336V24.7539H117.248V23.9336H123.646ZM117.537 13.3789V24.7539H116.576V13.3789H117.537ZM122.85 18.4805V19.3008H117.248V18.4805H122.85ZM123.607 13.3789V14.207H117.248V13.3789H123.607ZM125.662 13.3789H129.357C130.144 13.3789 130.826 13.5065 131.404 13.7617C131.982 14.0169 132.428 14.3945 132.74 14.8945C133.058 15.3893 133.217 15.9987 133.217 16.7227C133.217 17.2591 133.102 17.7461 132.873 18.1836C132.649 18.6211 132.339 18.9883 131.943 19.2852C131.548 19.5768 131.089 19.7773 130.568 19.8867L130.232 20.0117H126.287L126.271 19.1914H129.576C130.17 19.1914 130.665 19.0768 131.061 18.8477C131.456 18.6185 131.753 18.3164 131.951 17.9414C132.154 17.5612 132.256 17.1549 132.256 16.7227C132.256 16.207 132.144 15.7617 131.92 15.3867C131.701 15.0065 131.376 14.7148 130.943 14.5117C130.511 14.3086 129.982 14.207 129.357 14.207H126.623V24.7539H125.662V13.3789ZM132.686 24.7539L129.74 19.668L130.771 19.6602L133.709 24.6523V24.7539H132.686Z" fill="#0085FF"/>
</svg>
