<svg width="16" height="17" viewBox="0 0 16 17" fill="none" xmlns="http://www.w3.org/2000/svg">
<path d="M15.7122 1.2858C15.3286 0.902128 14.7132 0.902128 14.3296 1.2858L8.13281 7.48255L1.93607 1.2858C1.55239 0.902128 0.93706 0.902128 0.553383 1.2858C0.169706 1.66948 0.169706 2.28481 0.553383 2.66849L6.75013 8.86524L0.553383 15.062C0.169706 15.4457 0.169706 16.061 0.553383 16.4447C0.741602 16.6329 0.994973 16.7342 1.24111 16.7342C1.48724 16.7342 1.74061 16.6401 1.92883 16.4447L8.12557 10.2479L14.3223 16.4447C14.5105 16.6329 14.7639 16.7342 15.01 16.7342C15.2634 16.7342 15.5095 16.6401 15.6978 16.4447C16.0814 16.061 16.0814 15.4457 15.6978 15.062L9.5155 8.86524L15.7122 2.66849C16.0959 2.28481 16.0959 1.66948 15.7122 1.2858Z" fill="white"/>
</svg>
