<svg width="76" height="76" viewBox="0 0 76 76" fill="none" xmlns="http://www.w3.org/2000/svg">
<circle cx="37.8936" cy="38" r="37.5" fill="#FF6B00" fill-opacity="0.1"/>
<path d="M29.7298 48.5926H29.7317C29.7332 48.5926 29.7348 48.5923 29.7363 48.5923H51.2486C51.7782 48.5923 52.2439 48.237 52.3894 47.722L57.1355 30.922C57.2378 30.5598 57.1661 30.1704 56.9421 29.8698C56.7177 29.5692 56.367 29.3923 55.9947 29.3923H26.9934L26.1452 25.532C26.0244 24.9829 25.543 24.5923 24.9868 24.5923H17.8677C17.2123 24.5923 16.6812 25.1295 16.6812 25.7923C16.6812 26.4551 17.2123 26.9923 17.8677 26.9923H24.0351C24.1853 27.6763 28.094 45.4657 28.319 46.4892C27.058 47.0435 26.1734 48.3151 26.1734 49.7923C26.1734 51.7773 27.7702 53.3923 29.7329 53.3923H51.2486C51.904 53.3923 52.4351 52.8551 52.4351 52.1923C52.4351 51.5295 51.904 50.9923 51.2486 50.9923H29.7329C29.0788 50.9923 28.5464 50.4539 28.5464 49.7923C28.5464 49.1317 29.0769 48.5942 29.7298 48.5926ZM54.4216 31.7923L50.3535 46.1923H30.6846L27.5206 31.7923H54.4216Z" fill="#FF6B00"/>
<path d="M28.5464 56.9921C28.5464 58.9771 30.1433 60.5921 32.106 60.5921C34.0687 60.5921 35.6655 58.9771 35.6655 56.9921C35.6655 55.0071 34.0687 53.3921 32.106 53.3921C30.1433 53.3921 28.5464 55.0071 28.5464 56.9921ZM32.106 55.7921C32.7601 55.7921 33.2925 56.3305 33.2925 56.9921C33.2925 57.6537 32.7601 58.1921 32.106 58.1921C31.4518 58.1921 30.9194 57.6537 30.9194 56.9921C30.9194 56.3305 31.4518 55.7921 32.106 55.7921Z" fill="#FF6B00"/>
<path d="M45.3159 56.9921C45.3159 58.9771 46.9128 60.5921 48.8755 60.5921C50.8382 60.5921 52.4351 58.9771 52.4351 56.9921C52.4351 55.0071 50.8382 53.3921 48.8755 53.3921C46.9128 53.3921 45.3159 55.0071 45.3159 56.9921ZM48.8755 55.7921C49.5296 55.7921 50.062 56.3305 50.062 56.9921C50.062 57.6537 49.5296 58.1921 48.8755 58.1921C48.2214 58.1921 47.689 57.6537 47.689 56.9921C47.689 56.3305 48.2214 55.7921 48.8755 55.7921Z" fill="#FF6B00"/>
<circle cx="45.606" cy="28.9072" r="13.5" fill="#FF6B00"/>
<path d="M45.6057 36.7761C46.2665 36.7761 46.8022 36.2404 46.8022 35.5796C46.8022 34.9188 46.2665 34.3831 45.6057 34.3831C44.9449 34.3831 44.4092 34.9188 44.4092 35.5796C44.4092 36.2404 44.9449 36.7761 45.6057 36.7761Z" fill="white"/>
<path d="M45.1963 21.0872C44.3768 21.3213 43.8672 22.0651 43.8672 22.9673C43.9085 23.5113 43.9429 24.0622 43.9843 24.6063C44.1013 26.6792 44.2184 28.7108 44.3355 30.7837C44.3768 31.4861 44.9209 31.9958 45.6233 31.9958C46.3258 31.9958 46.8767 31.4517 46.9111 30.7424C46.9111 30.3154 46.9111 29.9229 46.9524 29.489C47.0282 28.1599 47.1108 26.8307 47.1866 25.5016C47.2279 24.6407 47.3037 23.7799 47.345 22.9191C47.345 22.6091 47.3037 22.3337 47.1866 22.0582C46.8354 21.2869 46.0158 20.8944 45.1963 21.0872Z" fill="white"/>
</svg>
