<svg width="75" height="76" viewBox="0 0 75 76" fill="none" xmlns="http://www.w3.org/2000/svg">
<circle cx="37.5" cy="38" r="37.5" fill="#00ABD0" fill-opacity="0.1"/>
<path fill-rule="evenodd" clip-rule="evenodd" d="M33.3944 20.3311L35.0228 21.6732L34.4747 23.7403C34.3819 24.0907 34.507 24.4548 34.7933 24.6683C34.9424 24.7794 35.1157 24.8352 35.2896 24.8351C35.4499 24.8351 35.6105 24.7876 35.7527 24.6922L37.5007 23.519L39.2488 24.6922C39.5451 24.891 39.9216 24.8819 40.2086 24.668C40.4947 24.4546 40.6196 24.0905 40.5268 23.7402L39.9786 21.6732L41.607 20.3312C41.883 20.104 41.9907 19.734 41.8815 19.3887C41.7722 19.0431 41.4729 18.8084 41.1191 18.7908L39.0323 18.6865L38.2907 16.6839C38.2907 16.6839 38.2907 16.6839 38.2907 16.6838V16.6837C38.1649 16.3443 37.8548 16.125 37.5007 16.125C37.1465 16.125 36.8364 16.3443 36.7108 16.6837L35.9692 18.6865L33.8825 18.7908C33.5286 18.8084 33.2292 19.0431 33.1202 19.388C33.0104 19.7336 33.1183 20.104 33.3944 20.3311ZM36.3534 20.0361C36.689 20.0195 36.983 19.8006 37.1023 19.4784L37.5007 18.4025L37.899 19.4785C38.0184 19.8006 38.3123 20.0195 38.6476 20.0361L39.7686 20.0921L38.8938 20.813C38.632 21.0287 38.5198 21.3829 38.6078 21.7155L38.9022 22.8259L37.9637 22.196C37.8229 22.1014 37.6616 22.0541 37.5003 22.0541C37.3391 22.0541 37.1781 22.1013 37.0377 22.1957L36.0986 22.8259L36.3932 21.7151C36.4812 21.3825 36.3687 21.0284 36.1071 20.813L35.2323 20.0921L36.3534 20.0361ZM42.7924 22.1792L44.4209 23.5211L43.8728 25.5883C43.78 25.9386 43.9051 26.3028 44.1914 26.5163C44.3405 26.6274 44.5139 26.6832 44.6877 26.6831C44.848 26.6831 45.0086 26.6356 45.1508 26.5402L46.8988 25.367L48.647 26.5402C48.9431 26.739 49.3194 26.7297 49.6068 26.516C49.893 26.3026 50.0179 25.9384 49.925 25.5883L49.3768 23.5211L51.0052 22.1793C51.2814 21.9516 51.3891 21.5815 51.2797 21.2367C51.1704 20.8911 50.8711 20.6564 50.5173 20.6388L48.4304 20.5345L47.6889 18.5319C47.6889 18.5319 47.6889 18.5319 47.6889 18.5318V18.5317C47.5631 18.1923 47.2531 17.973 46.899 17.973C46.5448 17.973 46.2347 18.1923 46.109 18.5317L45.3675 20.5345L43.2808 20.6388C42.9268 20.6564 42.6275 20.8911 42.5185 21.236C42.4088 21.5812 42.5163 21.9513 42.7924 22.1792ZM45.7516 21.884C46.0872 21.8674 46.3811 21.6485 46.5005 21.3263L46.8988 20.2504L47.2972 21.3264C47.4165 21.6485 47.7105 21.8674 48.0458 21.884L49.1668 21.94L48.2919 22.661C48.0298 22.8769 47.9177 23.2314 48.006 23.5634L48.3004 24.6738L47.3619 24.0439C47.2212 23.9493 47.0599 23.902 46.8986 23.902C46.7374 23.902 46.5764 23.9492 46.4358 24.0436L45.4968 24.6738L45.7914 23.5632C45.8794 23.2308 45.7671 22.8767 45.5053 22.6609L44.6305 21.94L45.7516 21.884ZM23.9961 22.1792L25.6245 23.5211L25.0767 25.5877C24.9834 25.9383 25.1083 26.3027 25.395 26.5164C25.5442 26.6274 25.7176 26.6832 25.8914 26.6832C26.0517 26.6832 26.2124 26.6357 26.3544 26.5403L28.1025 25.3671L29.8506 26.5403C30.1469 26.7392 30.5234 26.7299 30.8101 26.5164C31.0965 26.303 31.2215 25.9387 31.1286 25.5884L30.5805 23.5212L32.2093 22.179C32.4852 21.9514 32.5927 21.5813 32.4833 21.2368C32.374 20.8912 32.0747 20.6565 31.7209 20.6389L29.6341 20.5346L28.8925 18.532C28.8925 18.532 28.8925 18.532 28.8925 18.5319V18.5318C28.7668 18.1924 28.4567 17.9731 28.1026 17.9731C27.7481 17.9731 27.4379 18.1927 27.3128 18.5318L26.5712 20.5346L24.4844 20.6389C24.1309 20.6565 23.8316 20.891 23.7218 21.2368C23.6126 21.5819 23.7203 21.9518 23.9961 22.1792ZM26.9552 21.884C27.2912 21.8673 27.5853 21.6481 27.704 21.3263L28.1025 20.2505L28.5008 21.3264C28.6202 21.6485 28.9141 21.8674 29.2494 21.884L30.3704 21.94L29.4951 22.6612C29.2337 22.877 29.1217 23.231 29.2096 23.5633L29.504 24.6738L28.5655 24.0438C28.4247 23.9492 28.2634 23.9019 28.1021 23.9019C27.9409 23.9019 27.7799 23.9492 27.6395 24.0435L26.7005 24.6737L26.995 23.5631C27.0831 23.2304 26.9706 22.8763 26.7089 22.6608L25.8341 21.9399L26.9552 21.884ZM30.6886 32.7563C31.1888 32.2227 31.4974 31.4988 31.4974 30.702C31.4974 29.0659 30.1992 27.7347 28.6034 27.7347C27.0076 27.7347 25.7094 29.0658 25.7094 30.702C25.7094 31.499 26.0181 32.2232 26.5186 32.7568C25.221 33.3525 24.2006 34.4958 23.7577 35.9623C23.5982 36.49 23.6894 37.0466 24.0076 37.4892C24.3259 37.9319 24.8175 38.1858 25.3564 38.1858H30.9798V38.7224C30.9798 39.9889 31.9849 41.0193 33.2201 41.0193H41.7813C43.0164 41.0193 44.0215 39.9889 44.0216 38.7224V38.186H49.645C50.184 38.186 50.6755 37.9321 50.9939 37.4894C51.3121 37.0467 51.4031 36.4902 51.2437 35.9625C50.8009 34.4959 49.7804 33.3526 48.4829 32.757C48.9834 32.2233 49.2921 31.4992 49.2921 30.7021C49.2921 29.066 47.9938 27.7348 46.3981 27.7348C44.8023 27.7348 43.504 29.066 43.504 30.7021C43.504 31.4989 43.8126 32.2228 44.3128 32.7564C43.6871 33.0443 43.1232 33.4622 42.6543 33.9909C41.935 33.0543 40.9795 32.323 39.8823 31.8864C40.6545 31.2008 41.1445 30.1895 41.1445 29.0625C41.1445 27.0025 39.51 25.3264 37.5007 25.3264C35.4915 25.3264 33.8569 27.0024 33.8569 29.0625C33.8569 30.1895 34.3469 31.2008 35.1191 31.8864C34.0219 32.323 33.0664 33.0543 32.3471 33.9909C31.8782 33.4621 31.3143 33.0442 30.6886 32.7563ZM28.6034 29.1018C29.4639 29.1018 30.164 29.8196 30.164 30.702C30.164 31.5843 29.464 32.3021 28.6034 32.3021C27.7429 32.3021 27.0428 31.5843 27.0428 30.702C27.0428 29.8196 27.7429 29.1018 28.6034 29.1018ZM25.081 36.678C25.0433 36.6255 24.9866 36.5153 25.0314 36.3667C25.5189 34.7531 26.9542 33.6691 28.6033 33.6691C29.8023 33.6691 30.8974 34.2412 31.6014 35.2145C31.3647 35.7161 31.1855 36.2532 31.0752 36.8186H25.3564C25.2048 36.8187 25.1188 36.7305 25.081 36.678ZM44.8374 30.7021C44.8374 29.8199 45.5374 29.102 46.398 29.102C47.2585 29.102 47.9586 29.8198 47.9586 30.7021C47.9586 31.5845 47.2585 32.3022 46.398 32.3022C45.5374 32.3022 44.8374 31.5844 44.8374 30.7021ZM46.398 33.6693C48.0472 33.6693 49.4826 34.7534 49.9699 36.3669C50.0147 36.5154 49.9581 36.6257 49.9204 36.6783C49.8826 36.7308 49.7966 36.8189 49.6449 36.8189H43.9261C43.8158 36.2535 43.6366 35.7163 43.3999 35.2146C44.1038 34.2415 45.199 33.6693 46.398 33.6693ZM37.5007 26.6936C38.7747 26.6936 39.8111 27.7563 39.8111 29.0625C39.8111 30.3686 38.7747 31.4313 37.5007 31.4313C36.2268 31.4313 35.1903 30.3686 35.1903 29.0625C35.1903 27.7563 36.2268 26.6936 37.5007 26.6936ZM37.5007 32.7983C40.1642 32.7983 42.3882 34.8342 42.6881 37.5398V38.7224C42.688 39.2351 42.2812 39.6522 41.7813 39.6522H33.2201C32.7201 39.6522 32.3132 39.2352 32.3132 38.7225V37.5398C32.6131 34.8342 34.8371 32.7983 37.5007 32.7983ZM57.0887 43.9485C56.7065 43.2942 55.1386 41.3513 51.0099 43.8169L43.7626 48.1448C43.4188 48.3501 43.0694 48.4981 42.7059 48.5902C42.8358 48.3657 42.9384 48.1146 43.0105 47.8387C43.3841 46.4085 42.5555 44.9154 41.124 44.4395C41.0953 44.4301 41.0662 44.4226 41.0366 44.4171C38.9558 44.0323 36.9013 43.2707 35.2503 42.6588C34.6761 42.446 34.1338 42.2449 33.6723 42.0915C31.8076 41.4711 30.1249 42.2377 28.7243 43.0691L23.3531 46.2576L22.7757 45.2116C22.5483 44.7994 22.1767 44.5024 21.7295 44.3754C21.2826 44.2484 20.8147 44.3068 20.4129 44.5402L18.3795 45.7202C17.5475 46.2029 17.2537 47.2897 17.7246 48.1428L23.7028 58.9733C24.0214 59.5505 24.6096 59.875 25.2145 59.875C25.5036 59.875 25.7966 59.8008 26.0656 59.6447L28.099 58.4648C28.501 58.2315 28.7907 57.8506 28.9145 57.3921C29.0384 56.9337 28.9814 56.4543 28.7538 56.042L28.2298 55.0927L29.4301 54.3822L38.703 56.9297C39.2294 57.0743 39.7461 57.1466 40.2517 57.1466C41.2598 57.1466 42.2235 56.8594 43.1306 56.2869L56.2827 47.9833C57.4922 47.22 57.8763 45.2969 57.0887 43.9485ZM27.6298 57.027C27.6009 57.1335 27.5344 57.2215 27.4424 57.2749L25.4089 58.4549C25.3169 58.5083 25.2091 58.5214 25.1052 58.492C25.0013 58.4625 24.9154 58.3942 24.8633 58.2999L18.8851 47.4694C18.833 47.375 18.8203 47.2645 18.8489 47.1579C18.8778 47.0514 18.9444 46.9634 19.0364 46.9099L21.0697 45.73C21.1297 45.6953 21.1963 45.6775 21.2641 45.6775C21.3006 45.6775 21.3373 45.6826 21.3735 45.693C21.4773 45.7225 21.5632 45.7907 21.6153 45.8851L26.7459 55.1799C26.7461 55.1804 26.7463 55.1809 26.7466 55.1813C26.7468 55.1817 26.747 55.182 26.7472 55.1824L27.5935 56.7155C27.6457 56.8099 27.6585 56.9205 27.6298 57.027ZM55.5837 46.8192L42.4316 55.1227C41.3945 55.7775 40.2559 55.9413 39.0483 55.6091L29.5086 52.9883C29.3381 52.9413 29.1559 52.9659 29.0028 53.0566L27.5731 53.9028L24.0099 47.4476L29.3925 44.2523C30.5963 43.5377 31.8981 42.9387 33.261 43.3921C33.7013 43.5385 34.2091 43.7267 34.7971 43.9446C36.4826 44.5694 38.5773 45.3458 40.7516 45.7537C41.4961 46.0213 41.9124 46.7584 41.7224 47.485C41.4727 48.4407 40.6947 48.5602 40.0755 48.4874C39.0092 48.2626 37.9954 47.9659 36.9228 47.6518C36.4136 47.5027 35.887 47.3485 35.3456 47.1998C34.9899 47.1021 34.6245 47.3186 34.529 47.6832C34.4337 48.0479 34.6449 48.4226 35.0005 48.5204C35.5313 48.6662 36.0525 48.8188 36.5565 48.9664C37.663 49.2904 38.7081 49.5965 39.8341 49.8325C39.8384 49.8335 39.8427 49.8337 39.847 49.8346C39.8516 49.8354 39.8559 49.8368 39.8606 49.8376L40.7617 49.9878C42.1152 50.21 43.3162 49.9935 44.4334 49.3265L51.6807 44.9986C53.7544 43.7605 55.3483 43.6305 55.9446 44.6512C56.3549 45.3532 56.1728 46.4474 55.5837 46.8192ZM21.729 47.9471C21.787 48.3538 21.5124 48.7319 21.1157 48.7913C20.7189 48.8508 20.3503 48.5693 20.2923 48.1624C20.2343 47.7557 20.5089 47.3777 20.9057 47.3182C21.3023 47.2587 21.671 47.5403 21.729 47.9471Z" fill="#00ABD0" stroke="#00ABD0" stroke-width="0.8"/>
</svg>
