<svg width="17" height="16" viewBox="0 0 17 16" fill="none" xmlns="http://www.w3.org/2000/svg">
<path d="M15.889 0.292582C15.4989 -0.0975273 14.8732 -0.0975273 14.483 0.292582L8.18164 6.59321L1.88028 0.292582C1.49013 -0.0975273 0.86441 -0.0975273 0.474256 0.292582C0.0841021 0.682691 0.0841021 1.30834 0.474256 1.69845L6.77561 7.99908L0.474256 14.2997C0.0841021 14.6898 0.0841021 15.3155 0.474256 15.7056C0.665653 15.897 0.923302 16 1.17359 16C1.42388 16 1.68153 15.9043 1.87292 15.7056L8.17428 9.40495L14.4756 15.7056C14.667 15.897 14.9247 16 15.175 16C15.4326 16 15.6829 15.9043 15.8743 15.7056C16.2645 15.3155 16.2645 14.6898 15.8743 14.2997L9.58767 7.99908L15.889 1.69845C16.2792 1.30834 16.2792 0.682691 15.889 0.292582Z" fill="black"/>
</svg>
