<svg width="51" height="51" viewBox="0 0 51 51" fill="none" xmlns="http://www.w3.org/2000/svg">
<rect x="0.265625" y="0.934082" width="50" height="50" rx="5" fill="#0015EC" fill-opacity="0.1"/>
<path fill-rule="evenodd" clip-rule="evenodd" d="M31.0345 20.3159H35.2656C35.2656 16.9187 33.2301 14.9341 29.7812 14.9341H20.7501C17.3012 14.9341 15.2656 16.9187 15.2656 20.2726V27.5956C15.2656 30.9495 17.3012 32.9341 20.7501 32.9341H29.7812C33.2301 32.9341 35.2656 30.9495 35.2656 27.5956V27.2836H31.0345C29.0708 27.2836 27.479 25.7316 27.479 23.8171C27.479 21.9026 29.0708 20.3505 31.0345 20.3505V20.3159ZM31.0345 21.8065H34.519C34.9313 21.8065 35.2656 22.1324 35.2656 22.5345V25.065C35.2608 25.4651 34.9293 25.7883 34.519 25.793H31.1145C30.1204 25.8061 29.2511 25.1425 29.0256 24.1984C28.9127 23.6124 29.0712 23.0076 29.4587 22.5463C29.8462 22.085 30.423 21.8142 31.0345 21.8065ZM31.1856 24.4671H31.5145C31.9367 24.4671 32.279 24.1334 32.279 23.7218C32.279 23.3101 31.9367 22.9765 31.5145 22.9765H31.1856C30.9837 22.9741 30.7892 23.0507 30.6456 23.1891C30.502 23.3275 30.4212 23.5162 30.4212 23.7131C30.4212 24.1261 30.762 24.4623 31.1856 24.4671ZM20.0034 20.3159H25.6478C26.07 20.3159 26.4123 19.9822 26.4123 19.5706C26.4123 19.159 26.07 18.8253 25.6478 18.8253H20.0034C19.5847 18.8252 19.2438 19.1537 19.239 19.5619C19.2389 19.975 19.5798 20.3111 20.0034 20.3159Z" fill="#0015EC"/>
</svg>
