<svg width="71" height="70" viewBox="0 0 71 70" fill="none" xmlns="http://www.w3.org/2000/svg">
<circle cx="35.1318" cy="35" r="35" fill="#0015EC" fill-opacity="0.1"/>
<path d="M49.9802 35.1371V30.5458C49.9802 28.989 48.7726 27.7229 47.2468 27.6001L42.983 20.1528C42.5879 19.464 41.9498 18.9717 41.1864 18.7673C40.4265 18.5643 39.6319 18.6709 38.9519 19.0667L24.3352 27.5762H21.7681C20.1302 27.5762 18.7983 28.908 18.7983 30.5458V48.3637C18.7983 50.0015 20.1302 51.3334 21.7681 51.3334H47.0105C48.6483 51.3334 49.9802 50.0016 49.9802 48.3637V43.7725C50.8425 43.465 51.465 42.6487 51.465 41.682V37.2276C51.465 36.2609 50.8425 35.4446 49.9802 35.1371ZM45.5215 27.5762H39.0505L43.9038 24.7506L45.5215 27.5762ZM43.1661 23.4621L36.0994 27.5762H33.1683L42.4331 22.1821L43.1661 23.4621ZM39.6993 20.35C40.035 20.1535 40.4272 20.1013 40.8021 20.2014C41.1813 20.3029 41.4974 20.5479 41.6939 20.8908L41.6954 20.8936L30.2173 27.5762H27.2863L39.6993 20.35ZM48.4953 48.3637C48.4953 49.1823 47.829 49.8485 47.0105 49.8485H21.7681C20.9495 49.8485 20.2832 49.1823 20.2832 48.3637V30.5458C20.2832 29.7273 20.9495 29.061 21.7681 29.061H47.0105C47.829 29.061 48.4953 29.7273 48.4953 30.5458V35.0003H44.0408C41.5844 35.0003 39.5862 36.9984 39.5862 39.4548C39.5862 41.9112 41.5844 43.9093 44.0408 43.9093H48.4953V48.3637ZM49.9802 41.682C49.9802 42.0916 49.6474 42.4245 49.2377 42.4245H44.0408C42.4029 42.4245 41.071 41.0926 41.071 39.4548C41.071 37.817 42.4029 36.4851 44.0408 36.4851H49.2377C49.6473 36.4851 49.9802 36.8179 49.9802 37.2276V41.682Z" fill="#0015EC" stroke="#0015EC" stroke-width="0.5"/>
<path d="M46.7485 37.3164C45.93 37.3164 45.2637 37.9827 45.2637 38.8012C45.2637 39.6197 45.93 40.286 46.7485 40.286C47.567 40.286 48.2333 39.6197 48.2333 38.8012C48.2334 37.9827 47.5671 37.3164 46.7485 37.3164Z" fill="#0015EC" stroke="#0015EC" stroke-width="0.5"/>
</svg>
